<?xml version="1.0" ?>
<!-- Uploaded to: SVG Repo, www.svgrepo.com, Generator: SVG Repo Mixer Tools -->
<svg width="800px" height="800px" viewBox="0 0 20 20" version="1.1" xmlns="http://www.w3.org/2000/svg">
<g id="layer1">
<path d="M 11.8125 1.3066406 A 0.50005 0.50005 0 0 0 11.425781 1.5117188 L 7.4589844 6.9648438 L 0.75390625 7.6738281 A 0.50005 0.50005 0 0 0 0.51171875 8.5742188 L 5.9648438 12.541016 L 6.6738281 19.246094 A 0.50005 0.50005 0 0 0 7.5742188 19.488281 L 11.541016 14.035156 L 18.246094 13.326172 A 0.50005 0.50005 0 0 0 18.488281 12.425781 L 13.035156 8.4589844 L 12.326172 1.7539062 A 0.50005 0.50005 0 0 0 11.960938 1.3242188 A 0.50005 0.50005 0 0 0 11.8125 1.3066406 z M 9.8242188 2.0136719 C 6.5690599 1.888686 3.5076197 3.6555661 1.9882812 6.5371094 L 3.2167969 6.4082031 C 4.5189554 4.4045997 6.7114059 3.1376193 9.0976562 3.0117188 L 9.8242188 2.0136719 z M 13.462891 2.9882812 L 13.591797 4.2167969 C 15.5954 5.5189553 16.86238 7.7114061 16.988281 10.097656 L 17.986328 10.824219 C 18.111314 7.56906 16.344436 4.5076202 13.462891 2.9882812 z M 11.46875 3.1523438 L 12.064453 8.7851562 A 0.50005 0.50005 0 0 0 12.128906 8.9824219 L 9.5 10.5 L 16.847656 12.46875 L 11.214844 13.064453 A 0.50005 0.50005 0 0 0 11.017578 13.128906 L 9.5 10.5 L 7.53125 17.847656 L 6.9355469 12.214844 A 0.50005 0.50005 0 0 0 6.8710938 12.017578 L 9.5 10.5 L 2.1523438 8.53125 L 7.7851562 7.9355469 A 0.50005 0.50005 0 0 0 7.9824219 7.8710938 L 9.5 10.5 L 11.46875 3.1523438 z M 1.0136719 10.175781 C 0.88868576 13.430941 2.6555661 16.49238 5.5371094 18.011719 L 5.4082031 16.783203 C 3.4045999 15.481045 2.1376193 13.288594 2.0117188 10.902344 L 1.0136719 10.175781 z M 17.011719 14.462891 L 15.783203 14.591797 C 14.481044 16.5954 12.288593 17.862381 9.9023438 17.988281 L 9.1757812 18.986328 C 12.430941 19.111315 15.49238 17.344434 17.011719 14.462891 z " style="fill:#222222; fill-opacity:1; stroke:none; stroke-width:0px;"/>
</g>
</svg>